<?xml version="1.0" standalone="no"?>
<!DOCTYPE svg PUBLIC "-//W3C//DTD SVG 20010904//EN"
 "http://www.w3.org/TR/2001/REC-SVG-20010904/DTD/svg10.dtd">
<svg version="1.0" xmlns="http://www.w3.org/2000/svg"
 width="494.000000pt" height="505.000000pt" viewBox="0 0 494.000000 505.000000"
 preserveAspectRatio="xMidYMid meet">

<g transform="translate(0.000000,505.000000) scale(0.100000,-0.100000)"
fill="#000000" stroke="none">
<path d="M1440 4614 c-54 -39 -68 -54 -75 -82 -5 -22 1 -31 41 -66 54 -47 63
-52 223 -129 29 -14 37 -34 23 -57 -10 -17 -9 -201 2 -219 3 -4 -2 -20 -10
-35 -16 -32 -19 -102 -4 -111 18 -11 11 -42 -12 -58 -13 -8 -48 -38 -78 -66
-30 -28 -60 -51 -67 -51 -7 0 -16 -6 -20 -13 -10 -15 -64 -51 -78 -52 -5 0
-10 -7 -10 -15 0 -10 12 -16 33 -18 39 -4 44 -28 5 -27 -31 1 -56 -13 -47 -26
3 -5 1 -9 -5 -9 -5 0 -12 9 -16 19 -6 19 -7 19 -26 3 -27 -23 -24 -31 15 -47
47 -20 165 -13 182 10 12 15 14 15 38 0 14 -9 33 -15 43 -13 14 2 10 8 -17 26
-19 12 -48 31 -65 42 l-30 20 28 0 c15 0 35 4 45 9 9 4 40 19 67 32 43 21 50
29 53 57 2 21 12 38 28 48 13 9 24 24 24 33 -1 12 -7 9 -25 -11 -26 -31 -35
-26 -31 15 2 15 -1 30 -6 33 -5 3 -2 15 8 25 10 11 12 19 6 19 -8 0 -12 23
-12 66 0 64 2 68 49 129 42 53 47 64 35 76 -7 8 -15 28 -17 45 -2 16 -6 35
-10 41 -4 7 -3 14 2 18 6 3 9 23 8 45 -1 35 5 46 44 87 72 76 74 80 39 80 -17
0 -40 9 -53 21 -13 12 -31 22 -40 22 -9 0 -19 5 -22 10 -8 13 -45 13 -45 0 0
-5 9 -14 21 -20 20 -11 20 -12 3 -31 -18 -20 -49 -25 -59 -10 -8 14 -65 41
-85 41 -10 0 -20 7 -24 15 -3 8 -11 15 -18 15 -7 0 -21 12 -31 26 -30 41 13
66 58 34 20 -14 46 -20 39 -9 -7 11 -67 40 -81 38 -4 0 -24 -12 -43 -25z m8
-89 c11 -24 10 -25 -8 -15 -11 6 -20 17 -20 25 0 23 16 17 28 -10z m85 -50
c42 -29 45 -35 19 -35 -22 0 -93 59 -72 60 9 0 32 -11 53 -25z"/>
<path d="M1580 4585 c0 -6 56 -35 67 -35 13 1 -41 40 -54 40 -7 0 -13 -2 -13
-5z"/>
<path d="M1915 4519 c-34 -17 -36 -18 -10 -13 40 9 114 9 145 1 14 -4 7 2 -15
13 -49 24 -69 24 -120 -1z"/>
<path d="M2735 4493 c-46 -11 -86 -37 -105 -68 -26 -42 -25 -71 1 -85 26 -15
40 -3 16 14 -23 18 -22 28 8 56 13 12 22 27 19 32 -3 5 -2 7 3 6 4 -2 30 5 56
16 32 12 59 16 83 11 33 -6 35 -8 32 -43 -3 -33 -6 -37 -32 -40 l-29 -4 17 26
c14 22 14 26 1 26 -8 0 -20 -9 -27 -21 -7 -11 -30 -29 -50 -40 -21 -11 -38
-24 -38 -29 0 -5 -21 -29 -47 -54 -26 -24 -45 -48 -41 -52 7 -6 40 20 133 104
13 12 38 19 70 20 28 2 67 5 89 8 27 4 36 3 32 -5 -4 -6 -3 -11 1 -11 5 0 13
-21 19 -46 l11 -46 -41 6 c-23 3 -60 10 -83 15 -35 7 -48 5 -74 -13 -18 -12
-41 -26 -51 -32 -10 -6 -27 -19 -38 -29 -17 -15 -22 -16 -36 -4 -10 8 -19 13
-21 12 -12 -10 -23 1 -23 22 0 14 -4 25 -10 25 -5 0 -15 21 -21 46 -10 39 -18
49 -61 73 -56 32 -79 31 -109 -7 -17 -22 -23 -24 -39 -14 -11 7 -34 11 -52 11
-27 -1 -28 -2 -8 -6 37 -6 83 -24 104 -42 18 -15 19 -15 13 2 -9 25 9 57 33
57 29 0 88 -42 94 -67 3 -11 9 -28 12 -37 9 -23 -72 -22 -99 2 -14 11 -17 12
-12 2 19 -31 40 -50 58 -50 23 0 77 -28 77 -39 0 -11 -25 -21 -55 -21 -13 0
-27 -5 -30 -10 -4 -6 -24 -22 -45 -35 -86 -54 -176 -174 -149 -199 9 -8 10 -8
5 2 -4 7 -1 12 7 12 8 0 18 -7 21 -16 5 -13 9 -14 21 -4 8 7 15 21 15 31 0 10
4 20 9 24 6 3 9 14 8 24 -2 24 49 83 93 107 19 10 44 29 57 40 15 14 31 20 48
16 14 -2 25 0 25 6 0 5 6 12 14 15 11 5 11 0 -2 -24 -16 -28 -16 -31 0 -42 19
-15 7 -47 -18 -47 -8 0 -40 -23 -70 -51 -30 -29 -54 -48 -54 -44 0 4 -7 2 -15
-5 -9 -7 -13 -15 -11 -18 3 -3 -3 -17 -14 -32 -11 -16 -20 -37 -20 -47 0 -11
-6 -28 -14 -38 -13 -18 -16 -19 -33 -4 -10 9 -24 14 -31 12 -7 -3 -10 1 -7 9
3 7 -1 22 -9 33 -12 16 -15 17 -19 5 -17 -52 -18 -53 -29 -42 -9 9 -7 16 6 31
23 25 14 40 -21 33 -34 -6 -55 -21 -47 -34 3 -5 3 -20 0 -34 -5 -17 -13 -24
-31 -24 -13 0 -29 -8 -34 -17 -9 -15 -12 -16 -20 -3 -13 18 -5 30 20 30 23 0
27 8 33 70 5 47 29 75 56 65 11 -5 12 -3 4 5 -16 16 -61 -7 -68 -34 -3 -11 -6
-38 -6 -58 0 -30 -4 -38 -18 -38 -11 0 -27 -9 -37 -20 -22 -25 -44 -26 -60 -3
-11 15 -15 15 -29 4 -19 -16 -46 -8 -46 14 0 11 11 15 40 15 35 0 40 2 32 16
-13 23 -108 74 -137 74 -26 0 -65 -46 -65 -76 0 -19 10 -14 14 8 3 24 40 58
62 58 12 0 27 -7 34 -15 7 -8 19 -15 26 -15 8 0 14 -9 14 -20 0 -17 -3 -19
-19 -11 -14 8 -25 6 -45 -10 -31 -24 -33 -44 -6 -84 13 -20 16 -33 9 -41 -19
-23 12 -27 35 -5 12 12 26 21 32 21 5 -1 -7 -14 -26 -30 -38 -33 -27 -42 13
-10 14 11 31 20 39 20 7 0 21 9 31 20 9 11 22 20 29 21 16 1 60 6 116 15 23 3
48 14 55 23 13 18 67 23 79 7 3 -5 12 -11 20 -12 7 -2 23 -5 35 -8 16 -3 28 4
47 29 14 19 26 40 26 47 1 22 76 118 123 158 25 20 67 45 93 55 27 9 53 22 59
26 18 17 28 9 12 -9 -27 -29 -20 -50 21 -68 36 -15 39 -15 99 15 53 26 66 29
97 20 32 -9 34 -12 23 -29 -6 -11 -16 -20 -21 -20 -4 0 -31 -19 -60 -42 -28
-23 -58 -48 -66 -54 -46 -38 -120 -108 -120 -113 0 -4 16 -5 36 -3 20 3 31 7
26 11 -6 4 3 15 21 27 18 11 64 41 102 66 39 25 87 51 109 59 33 12 39 12 49
-2 7 -9 17 -14 22 -13 6 2 28 -7 50 -19 30 -17 39 -28 37 -44 -4 -29 15 -39
37 -19 10 9 27 16 38 16 11 0 26 6 32 14 7 8 43 16 94 20 45 3 98 9 117 12
l35 6 -34 -19 c-19 -10 -34 -22 -33 -28 1 -5 42 -15 91 -20 49 -6 96 -17 104
-24 9 -7 21 -10 26 -7 5 4 12 2 15 -3 6 -9 128 -83 191 -115 l40 -21 -110 -5
c-123 -7 -145 -15 -248 -97 -30 -24 -71 -30 -82 -13 -3 6 -17 10 -30 10 -43 0
-37 19 24 84 41 42 61 71 61 88 0 26 -37 68 -61 68 -8 0 -19 10 -24 23 -6 13
-17 21 -29 19 -10 -2 -26 4 -36 13 -27 25 -86 5 -142 -49 -28 -27 -50 -41 -58
-36 -13 8 -90 7 -105 -2 -6 -3 -28 -11 -50 -18 -76 -23 -110 -42 -145 -81
l-36 -39 -79 25 c-44 15 -86 31 -93 37 -10 9 -16 8 -22 -3 -5 -8 -15 -14 -22
-14 -7 0 -14 -10 -14 -23 -2 -30 -10 -37 -27 -24 -8 7 -18 8 -22 4 -5 -4 -5 1
-2 11 8 21 -1 47 -16 47 -6 0 -18 -6 -26 -14 -14 -13 -19 -13 -35 0 -11 8 -16
14 -11 14 5 0 -1 11 -14 23 -17 19 -19 26 -9 35 20 16 128 -16 137 -41 7 -18
10 -17 36 17 24 31 27 42 22 80 -6 42 -5 45 26 59 18 9 43 27 56 41 24 25 24
26 6 46 -16 18 -20 18 -34 6 -9 -8 -27 -20 -41 -26 -33 -14 -58 -30 -97 -59
-25 -19 -30 -28 -22 -37 8 -10 4 -16 -17 -25 -65 -27 -114 -51 -119 -58 -2 -5
6 -18 19 -30 17 -16 23 -34 25 -71 2 -44 -1 -51 -26 -66 -15 -10 -40 -29 -55
-42 -32 -29 -94 -35 -152 -15 -43 14 -76 17 -75 6 1 -14 103 -83 121 -83 10 0
18 7 18 15 0 8 -5 15 -11 15 -5 0 -7 -4 -4 -10 3 -5 2 -10 -4 -10 -5 0 -14 6
-18 14 -4 7 -15 15 -23 18 -8 3 16 3 54 2 38 -2 71 -5 73 -8 3 -3 -10 -14 -28
-25 l-34 -21 27 0 c16 0 40 12 61 33 60 55 119 95 102 67 -3 -5 7 -15 22 -22
38 -16 37 -16 23 -33 -7 -8 -14 -37 -15 -63 -2 -26 -15 -72 -29 -102 -27 -55
-34 -100 -16 -100 6 0 14 8 17 18 4 9 13 22 20 27 7 6 15 30 17 55 5 59 50
164 58 134 3 -11 -4 -39 -15 -62 -21 -46 -17 -75 10 -70 11 2 18 13 19 28 1
14 11 43 23 65 11 22 21 50 21 63 0 34 19 65 36 58 9 -3 12 -1 9 4 -7 12 35
31 49 22 5 -3 6 0 2 6 -4 7 -2 12 4 12 7 0 28 7 47 16 24 12 37 14 45 6 8 -8
5 -9 -11 -5 -13 3 -21 1 -21 -6 0 -7 4 -10 9 -7 5 3 11 -3 14 -13 5 -21 -19
-38 -26 -18 -2 7 -4 -15 -4 -48 0 -69 -9 -128 -23 -155 -6 -11 -13 -46 -16
-78 -6 -52 -9 -59 -26 -54 -10 2 -23 13 -29 24 -6 10 -18 18 -27 17 -9 -2 -40
9 -69 23 -29 14 -54 23 -57 20 -17 -16 -2 -56 34 -92 35 -35 40 -46 40 -85 0
-25 -4 -45 -10 -45 -5 0 -10 4 -10 10 0 5 -22 21 -49 34 -26 14 -61 39 -75 57
l-27 32 -21 -21 -22 -21 27 -10 c33 -13 34 -23 6 -60 -25 -35 -18 -51 22 -51
34 0 39 -15 8 -23 -12 -3 -18 -10 -14 -17 10 -17 -15 -43 -30 -30 -8 7 -29 1
-68 -20 -31 -16 -59 -30 -63 -30 -3 0 7 16 22 35 99 121 98 118 56 158 -21 20
-31 24 -39 16 -7 -7 -27 -13 -45 -15 -50 -4 -161 15 -179 32 -8 8 -19 14 -24
14 -17 0 -116 84 -112 95 3 6 -6 21 -19 34 -13 13 -24 32 -24 44 0 11 -7 28
-16 38 -24 26 -36 89 -18 96 8 3 14 9 14 14 0 14 -27 10 -33 -4 -6 -17 9 -101
23 -127 18 -34 4 -22 -23 19 -27 41 -37 87 -24 109 19 29 171 54 194 31 7 -7
10 -4 9 13 -1 13 1 33 5 45 7 18 5 21 -9 16 -9 -3 -22 -10 -28 -15 -6 -4 -33
-11 -60 -14 -56 -8 -110 -32 -137 -62 -14 -16 -18 -32 -15 -72 4 -47 8 -55 43
-81 21 -16 47 -29 57 -29 10 0 19 -6 20 -12 0 -7 2 -18 2 -23 1 -6 11 -20 24
-33 12 -12 22 -29 22 -38 0 -25 -68 -9 -102 24 -15 14 -31 23 -35 19 -3 -4
-11 3 -18 16 -6 12 -17 21 -24 19 -7 -1 -19 2 -26 8 -7 6 -19 9 -26 8 -17 -4
-28 53 -19 103 11 58 -11 62 -58 12 -20 -22 -52 -48 -69 -57 -18 -9 -33 -18
-33 -20 0 -2 7 -23 15 -46 8 -23 15 -45 15 -49 0 -4 -26 -12 -57 -20 -73 -16
-145 -81 -157 -141 -1 -3 -4 -9 -7 -15 -19 -33 -31 -106 -21 -134 7 -19 7 -33
1 -36 -14 -9 -11 -38 11 -83 11 -22 20 -47 20 -53 0 -25 32 -48 59 -43 22 4
31 -2 54 -36 16 -22 32 -40 37 -40 5 0 12 -17 16 -37 14 -78 95 -187 120 -163
5 4 20 10 33 12 13 1 29 11 35 21 16 25 -4 53 -37 49 -30 -4 -59 10 -64 29 -2
8 -9 42 -15 76 -13 61 -45 103 -80 103 -7 0 -39 26 -71 58 l-57 58 0 83 c0 73
3 88 24 115 13 17 26 41 30 54 11 33 40 44 133 50 46 3 86 9 89 14 3 5 -2 18
-11 28 -13 15 -22 17 -36 10 -24 -13 -49 -13 -27 1 15 8 17 19 11 70 -6 60 -6
61 18 57 18 -2 23 -9 24 -33 0 -21 7 -33 22 -40 12 -5 23 -18 25 -29 2 -14 16
-24 43 -32 47 -14 128 -54 121 -61 -2 -3 -24 7 -49 21 -37 22 -46 24 -56 13
-9 -11 -1 -20 39 -45 28 -17 54 -42 59 -55 9 -23 54 -47 89 -47 30 0 92 -34
92 -50 0 -9 8 -24 18 -33 17 -15 21 -15 52 1 19 9 35 24 36 32 1 33 17 50 47
50 l31 0 -27 -28 c-32 -34 -34 -53 -7 -77 16 -14 23 -16 32 -7 7 7 19 12 27
12 9 -1 -2 -10 -24 -21 -22 -12 -83 -50 -136 -85 -53 -36 -106 -67 -118 -69
-26 -5 -51 -23 -51 -36 0 -5 -12 -28 -27 -52 -35 -56 -50 -196 -25 -239 16
-28 32 -37 32 -18 0 6 -7 21 -16 34 -10 16 -12 26 -5 31 6 3 11 20 11 36 0
110 72 224 118 187 15 -12 16 -11 3 5 -8 9 -12 19 -10 20 18 13 59 37 63 37 3
0 2 -15 -1 -34 -3 -22 1 -46 11 -67 20 -39 20 -40 1 -33 -19 8 -32 -23 -16
-39 10 -9 16 -7 27 8 15 20 15 20 30 1 13 -19 14 -19 14 7 0 15 -4 27 -8 27
-14 0 -32 48 -26 67 5 16 4 16 -6 3 -10 -12 -11 -11 -6 10 3 14 6 32 6 40 0
12 2 12 9 2 10 -17 29 4 34 38 4 22 31 50 50 50 4 0 5 -9 2 -20 -4 -11 -3 -19
2 -18 10 4 13 -5 12 -34 0 -22 -1 -22 -11 2 l-10 25 -15 -35 c-27 -64 -35
-160 -12 -160 8 0 13 30 10 75 -1 11 7 31 18 44 l18 24 12 -36 c7 -21 17 -37
22 -37 7 0 15 64 10 93 0 4 4 7 9 7 6 0 8 -11 4 -25 -6 -26 12 -112 27 -120 9
-6 7 66 -3 81 -4 6 -1 35 7 65 8 30 15 62 15 72 0 31 -18 18 -24 -18 -4 -19
-11 -35 -15 -35 -5 0 -5 16 -1 35 10 43 -4 46 -19 5 -13 -38 -17 -38 -16 0 0
17 8 35 20 44 25 19 38 20 30 4 -4 -7 0 -5 8 5 25 30 37 20 31 -25 -10 -83 -9
-113 5 -127 9 -10 12 -30 9 -62 -3 -27 -1 -46 4 -43 4 3 8 21 8 41 0 28 3 33
13 25 7 -6 18 -7 26 -3 11 7 10 15 -5 40 -15 26 -16 35 -6 52 9 13 10 25 3 37
-9 15 -11 14 -19 -8 -19 -52 -21 -54 -17 -15 8 66 16 95 25 90 4 -3 11 2 14
11 3 8 2 12 -4 9 -24 -15 -29 8 -6 26 28 22 86 37 86 22 0 -7 15 -7 43 -1 23
5 49 10 58 11 15 2 67 46 120 102 21 21 25 31 16 37 -20 13 18 10 48 -4 28
-12 48 -3 25 12 -8 6 -11 10 -6 10 5 0 3 6 -3 14 -9 11 -8 15 4 20 9 3 13 2
10 -4 -3 -6 -1 -10 4 -10 13 0 14 13 4 24 -26 25 28 278 68 320 13 14 15 23 7
35 -9 16 -3 40 22 84 5 9 14 25 18 35 21 42 118 84 226 98 l51 7 -24 -27 c-14
-15 -35 -26 -50 -26 -38 0 -97 -44 -110 -81 -6 -18 -8 -30 -5 -26 4 4 13 2 19
-3 9 -8 34 1 86 30 41 22 77 40 80 40 26 0 9 -59 -35 -123 -17 -25 -17 -30 -5
-43 13 -12 18 -11 41 13 32 34 100 161 93 173 -9 15 18 50 63 81 39 26 62 36
62 25 0 -15 -45 -104 -64 -127 -13 -15 -27 -44 -30 -64 -4 -20 -15 -51 -26
-69 -10 -18 -23 -42 -29 -52 -6 -11 -17 -36 -26 -58 -12 -31 -18 -36 -29 -27
-19 16 -24 5 -27 -64 -3 -79 -17 -132 -46 -177 -13 -21 -24 -49 -25 -63 -1
-14 -10 -27 -19 -30 -9 -3 -19 -15 -22 -25 -3 -12 -14 -20 -25 -20 -11 0 -22
-7 -26 -15 -9 -25 -47 -3 -72 44 -13 23 -24 47 -24 55 0 18 -44 36 -61 25 -11
-8 -7 -16 21 -39 50 -43 47 -73 -13 -133 -28 -27 -53 -44 -60 -41 -7 4 -9 4
-5 0 9 -10 -25 -42 -54 -51 -12 -4 -29 -12 -35 -17 -15 -12 -16 -4 -4 40 9 30
8 32 -15 28 -37 -7 -44 -15 -44 -47 0 -17 4 -28 9 -25 5 3 8 -2 7 -11 -1 -18
-42 -63 -57 -63 -5 0 -15 -11 -21 -25 -7 -16 -18 -25 -29 -23 -10 2 -34 -13
-54 -32 -20 -19 -43 -35 -52 -35 -9 0 -21 -9 -27 -20 -6 -11 -15 -23 -19 -26
-10 -7 -37 -58 -37 -70 0 -17 16 -9 67 34 28 23 82 64 119 91 96 70 149 113
211 174 66 63 104 73 67 17 -9 -13 -13 -29 -10 -34 4 -5 1 -13 -5 -17 -8 -4
-9 -3 -5 4 4 7 2 12 -3 12 -6 0 -11 -7 -11 -14 0 -8 -11 -27 -25 -42 -14 -15
-25 -31 -25 -36 0 -15 -51 -78 -63 -78 -6 0 -38 -26 -71 -57 -93 -87 -155
-140 -160 -136 -2 2 -24 -10 -50 -27 -25 -17 -54 -33 -65 -35 -11 -2 -30 -11
-44 -19 -27 -18 -57 -17 -81 3 -14 12 -20 11 -41 -9 -14 -13 -25 -31 -25 -41
0 -18 -44 -28 -143 -34 -45 -3 -48 -1 -63 31 -20 41 -33 51 -45 33 -18 -29
-10 -79 18 -105 24 -22 31 -43 33 -108 2 -40 29 18 30 63 0 35 3 41 13 32 8
-6 17 -8 21 -4 15 15 23 -20 14 -59 -5 -23 -7 -46 -4 -52 2 -6 7 4 11 22 4 17
14 32 22 32 7 0 17 8 20 17 13 33 98 100 107 84 9 -14 -37 -135 -57 -149 -14
-11 -15 -17 -6 -28 19 -23 43 -16 78 20 27 28 35 45 40 90 l6 55 44 -30 c25
-16 51 -27 59 -24 7 3 22 5 32 5 25 0 90 65 90 91 0 11 -6 22 -14 25 -23 9
-12 32 27 58 27 18 37 21 37 11 0 -7 -4 -16 -9 -19 -5 -3 -9 -30 -10 -60 0
-64 -49 -172 -106 -235 -19 -21 -42 -54 -50 -74 -14 -34 -76 -87 -101 -87 -6
0 -17 -6 -23 -14 -15 -18 2 -32 52 -41 23 -5 34 -11 27 -15 -21 -13 -125 -10
-185 5 -93 24 -233 98 -295 155 -30 27 -62 50 -72 50 -25 0 -23 -6 17 -46 19
-19 35 -33 35 -31 0 2 18 -13 40 -35 23 -21 49 -38 60 -38 10 0 25 -6 32 -13
7 -7 35 -22 61 -33 27 -12 48 -25 48 -30 -1 -10 37 -22 84 -28 44 -5 42 -23
-10 -70 -28 -27 -43 -46 -36 -50 6 -4 17 -3 25 1 30 17 96 85 96 98 0 8 4 15
10 15 11 0 -4 -46 -22 -68 -8 -9 -8 -16 -1 -23 13 -13 63 44 63 71 0 15 11 20
58 26 31 3 63 11 70 17 8 6 23 13 35 14 26 4 67 30 67 43 0 13 -18 22 -30 15
-8 -5 -7 -12 2 -23 7 -9 8 -13 2 -9 -7 4 -26 2 -44 -4 -58 -21 -51 4 23 81 71
74 83 99 66 133 -10 18 5 25 15 8 4 -5 16 -4 30 2 14 7 21 14 18 17 -4 3 -12
14 -19 25 -6 11 -16 19 -22 17 -6 -1 -11 1 -11 5 1 12 26 43 35 43 4 0 2 -7
-5 -15 -10 -12 -8 -16 15 -25 35 -13 37 -13 31 8 -3 9 1 29 8 44 12 23 12 28
-2 41 -10 8 -23 12 -31 10 -9 -4 -11 0 -8 13 4 11 9 31 13 47 3 15 10 27 15
27 5 0 6 -6 3 -14 -3 -8 -1 -17 5 -20 6 -4 9 -12 7 -19 -1 -7 -1 -8 2 -4 2 4
10 3 18 -4 15 -12 16 -11 30 46 8 35 9 108 1 121 -3 5 -8 25 -11 44 -6 31 -2
40 34 78 22 24 38 47 35 52 -3 5 1 14 8 22 8 7 19 24 26 36 7 12 16 20 22 17
5 -4 12 1 15 9 7 19 38 21 51 4 12 -15 23 -67 14 -66 -20 2 -41 -3 -41 -11 0
-4 11 -6 25 -3 14 2 25 0 26 -4 0 -5 2 -18 3 -29 2 -11 6 -45 10 -75 4 -30 10
-68 13 -85 l5 -30 -21 27 c-11 14 -21 41 -22 60 0 32 -17 86 -18 61 -1 -20
-21 -15 -22 5 0 9 -3 12 -5 5 -3 -6 4 -31 16 -55 17 -38 19 -52 11 -99 -9 -54
-9 -54 -10 -12 -1 51 -32 137 -64 181 l-24 32 -13 -25 c-10 -19 -10 -27 -1
-39 16 -19 7 -34 -26 -47 -23 -8 -24 -29 -2 -29 6 0 7 4 4 10 -3 6 -1 10 4 10
14 0 14 -13 -1 -28 -9 -9 -8 -12 7 -13 44 -3 50 -4 50 -16 0 -6 3 -15 8 -19
11 -12 8 -64 -4 -64 -8 0 -8 -4 -2 -12 23 -31 -7 -226 -46 -292 -64 -110 -175
-213 -261 -243 -19 -7 -45 -24 -57 -38 -12 -14 -26 -25 -30 -25 -5 0 -14 -9
-20 -19 -8 -13 -26 -21 -50 -23 -42 -3 -52 -21 -15 -26 22 -3 23 -4 5 -17 -25
-20 -47 -18 -68 5 -14 15 -21 17 -31 9 -8 -6 -11 -15 -8 -20 10 -16 -25 -21
-41 -6 -13 13 -19 13 -51 -3 -19 -10 -42 -16 -50 -13 -16 6 -15 -17 1 -30 6
-5 -2 -7 -17 -4 -18 3 -25 0 -21 -7 3 -6 -5 -1 -19 12 l-26 23 -48 -31 c-34
-22 -57 -30 -75 -26 -14 3 -31 0 -38 -7 -13 -13 -109 -35 -156 -37 -16 0 -62
-15 -102 -33 -64 -30 -71 -35 -57 -49 13 -13 8 -19 -43 -51 -57 -36 -89 -43
-188 -38 -14 0 -16 -1 -5 -6 8 -3 21 -13 29 -20 8 -8 29 -13 50 -12 49 4 52
-14 5 -27 -28 -8 -44 -8 -56 0 -14 8 -24 4 -51 -22 -36 -34 -47 -39 -47 -19 0
6 -7 21 -15 32 -15 18 -16 18 -44 2 -38 -22 -54 -22 -47 1 7 21 -13 42 -59 63
-19 9 -31 23 -33 39 -2 14 -11 33 -20 43 -8 9 -12 20 -8 24 3 4 -5 19 -19 33
l-26 27 41 6 c28 3 53 17 80 41 49 44 79 48 81 9 2 -25 2 -26 6 -5 3 16 9 22
20 18 8 -3 19 -6 24 -6 6 0 8 -4 5 -8 -8 -13 23 -52 40 -52 8 0 14 9 14 20 0
11 4 20 9 20 15 0 122 101 116 110 -2 4 4 26 15 48 11 23 20 46 20 53 0 7 8 5
20 -6 11 -10 20 -16 21 -14 6 28 5 90 -2 95 -5 3 4 16 20 30 16 13 28 30 28
36 -4 45 19 108 59 161 24 31 44 62 44 68 0 5 4 8 9 5 4 -3 16 3 26 14 14 15
21 17 32 9 7 -6 13 -17 13 -24 0 -7 7 -18 15 -25 21 -18 19 -22 -20 -48 -33
-21 -95 -95 -95 -114 0 -21 33 -5 50 25 11 19 37 48 59 65 l38 31 22 -30 c13
-17 25 -28 29 -25 3 4 -6 19 -20 34 -14 15 -29 37 -32 48 -4 12 -18 34 -31 48
-39 42 -48 108 -11 77 8 -6 12 -20 9 -30 -3 -12 5 -25 25 -40 l30 -21 23 31
c17 25 20 35 11 49 -6 10 -8 27 -6 37 4 14 -4 28 -24 45 -27 22 -29 27 -16 40
13 13 12 18 -6 41 -12 15 -25 25 -30 22 -5 -3 -24 8 -43 25 -19 16 -40 30 -46
30 -6 0 -11 11 -11 24 0 13 -7 29 -16 36 -17 15 -54 87 -54 106 0 6 -7 25 -15
40 l-15 29 0 -43 c0 -23 -5 -50 -11 -60 -9 -14 -5 -38 16 -108 15 -49 34 -96
41 -105 8 -9 11 -19 7 -22 -3 -4 4 -18 16 -31 l22 -23 -32 -27 c-25 -21 -34
-24 -46 -15 -9 8 -12 21 -8 37 7 30 -17 69 -51 82 -18 7 -24 17 -24 40 0 39
-29 94 -75 143 -34 37 -56 44 -61 19 -1 -7 0 -8 3 -2 10 20 23 9 23 -19 0 -17
4 -32 9 -35 14 -9 51 -94 51 -118 0 -22 -1 -22 -25 7 -13 17 -24 35 -25 40 0
6 -10 19 -22 29 -20 18 -21 18 -14 0 5 -11 9 -24 10 -29 1 -6 13 -26 27 -45
15 -19 31 -44 37 -56 12 -22 16 -90 9 -139 -3 -16 -6 -34 -6 -40 -1 -7 -4 -7
-9 0 -18 24 -52 12 -72 -26 -13 -22 25 -73 48 -64 26 10 -17 -34 -60 -61 -39
-25 -46 -42 -27 -61 13 -13 65 10 79 37 5 10 18 17 27 15 10 -2 23 -4 29 -4 7
-1 10 -16 7 -43 -3 -24 -5 -57 -6 -74 -1 -17 -7 -37 -13 -45 -6 -8 -32 -54
-58 -103 -45 -82 -50 -88 -75 -83 -14 3 -53 8 -86 12 -63 6 -64 6 -142 -47
-25 -17 -52 -26 -75 -25 -34 1 -102 -25 -113 -42 -3 -5 -25 -19 -50 -31 -79
-38 -123 -116 -87 -152 7 -7 12 -17 12 -23 0 -17 44 -55 63 -55 21 0 21 -9 2
-34 -9 -13 -11 -23 -5 -31 6 -7 -1 -26 -20 -55 -35 -53 -46 -95 -30 -115 7 -8
10 -24 7 -35 -9 -34 20 -102 61 -143 86 -87 131 -121 96 -74 -10 14 -29 31
-41 38 -12 7 -20 16 -17 21 3 5 -3 12 -15 15 -12 3 -21 13 -21 25 0 10 -12 31
-26 45 -27 27 -36 85 -16 105 6 6 8 1 5 -15 -4 -20 6 -37 47 -80 50 -52 53
-54 78 -41 18 9 31 10 44 3 13 -7 23 -7 32 1 19 15 29 -15 14 -43 -7 -14 -13
-17 -16 -9 -5 16 -62 46 -62 33 0 -6 10 -16 22 -22 13 -7 38 -29 56 -50 19
-22 39 -39 46 -39 7 0 21 -9 31 -20 10 -11 24 -20 32 -20 8 0 12 -4 9 -9 -9
-13 -73 -6 -92 10 -10 8 -19 13 -21 11 -2 -1 -17 5 -33 13 -17 9 -30 13 -30 9
0 -10 44 -43 58 -44 7 0 31 -12 54 -27 22 -16 46 -31 52 -35 63 -41 176 -69
200 -49 7 6 35 14 62 17 27 4 58 13 69 21 19 14 19 14 -5 9 -14 -3 -45 -10
-70 -16 -72 -16 -104 -12 -135 14 -16 14 -32 23 -37 20 -14 -9 -48 7 -48 22 0
11 6 14 20 10 11 -3 30 -9 43 -12 12 -3 42 -15 66 -26 42 -19 47 -19 72 -4 15
9 35 16 44 16 20 0 102 55 107 72 3 7 -2 25 -10 41 -8 17 -15 39 -16 50 -1 12
-17 32 -37 47 -20 14 -55 47 -79 73 -51 57 -95 83 -106 65 -14 -23 -16 -137
-3 -175 18 -53 18 -57 5 -75 -20 -28 -59 -32 -80 -9 -11 12 -25 21 -31 21 -7
0 -16 7 -19 16 -4 9 -2 13 5 8 7 -4 10 -1 7 7 -3 8 3 29 14 47 11 17 17 32 14
32 -4 0 1 14 10 31 17 33 10 50 -23 56 -69 13 -114 14 -126 5 -8 -7 -18 -7
-27 -2 -26 16 15 22 110 17 87 -5 91 -4 84 15 -6 20 22 62 37 53 4 -3 16 6 27
20 11 14 24 25 28 25 5 1 25 14 44 30 26 23 44 30 77 30 36 0 46 5 70 35 15
19 30 51 33 71 5 38 8 41 75 69 22 10 52 28 66 42 42 39 100 50 268 52 108 2
165 7 189 17 48 20 62 18 128 -16 89 -45 113 -68 116 -115 2 -27 9 -43 23 -50
24 -12 23 -56 -2 -76 -13 -12 -10 -18 28 -50 28 -24 40 -41 35 -50 -20 -40
-36 -62 -54 -74 -12 -9 -21 -29 -24 -51 -4 -33 -1 -38 34 -60 37 -24 48 -47
28 -59 -22 -13 -10 -74 20 -108 24 -28 30 -44 30 -82 0 -32 6 -55 20 -72 11
-14 20 -31 20 -38 0 -6 43 -51 96 -100 l96 -88 51 21 c29 12 57 22 64 22 6 0
28 16 49 35 22 19 50 43 64 54 39 30 19 34 -23 4 -29 -20 -40 -24 -49 -15 -20
20 -58 13 -97 -18 -26 -19 -45 -27 -59 -23 -29 7 -38 40 -18 62 9 10 16 22 16
28 0 17 59 63 81 63 10 0 19 7 19 15 0 29 37 16 54 -20 19 -39 49 -59 77 -52
10 3 19 1 19 -4 0 -15 47 -10 61 7 11 14 10 19 -7 33 -31 25 -19 51 24 52 20
1 45 0 55 -1 10 -1 25 4 33 10 11 10 17 10 28 0 12 -9 22 -8 50 5 19 9 43 15
53 13 10 -3 30 1 45 9 42 20 184 185 198 229 7 21 22 59 33 84 21 48 43 127
56 200 5 25 12 53 16 63 5 12 1 25 -10 37 -17 19 -20 19 -36 4 -11 -10 -20
-37 -24 -73 -8 -72 -52 -210 -76 -237 -11 -11 -19 -25 -19 -31 0 -28 -38 -78
-96 -128 -93 -79 -147 -108 -187 -102 -51 8 -64 12 -78 24 -9 7 -29 9 -55 4
-23 -4 -56 -6 -73 -3 -20 3 -38 -1 -49 -11 -27 -23 -45 -25 -79 -6 -31 18 -32
18 -48 -7 -9 -13 -13 -29 -10 -34 3 -6 1 -10 -5 -10 -26 0 2 51 56 102 31 29
58 51 61 49 8 -5 93 82 93 96 0 7 17 24 38 37 20 13 48 36 62 51 30 33 125
105 139 105 6 0 23 19 40 43 16 24 45 55 63 69 18 14 56 46 83 72 28 25 59 49
70 52 11 4 26 11 34 17 30 25 91 8 91 -24 0 -7 2 -10 5 -7 13 12 -8 58 -25 58
-11 0 -22 5 -25 10 -11 17 -99 11 -140 -10 -22 -11 -45 -20 -52 -20 -6 0 -18
-9 -25 -19 -8 -10 -31 -29 -53 -42 -22 -13 -60 -42 -85 -66 -57 -54 -122 -102
-137 -103 -6 0 -19 -10 -27 -22 -9 -13 -41 -37 -73 -53 -32 -17 -57 -36 -56
-43 2 -6 -4 -9 -12 -6 -20 8 -19 29 1 60 16 23 16 26 -5 48 -12 13 -37 32 -56
42 -20 11 -35 27 -39 43 -2 14 -8 39 -12 54 -5 20 -1 40 14 65 34 62 23 142
-26 178 -8 6 -17 34 -20 62 -2 29 -9 52 -14 52 -5 0 0 15 11 33 14 23 21 55
23 104 2 40 7 75 11 79 4 4 7 14 7 22 0 8 20 44 44 81 58 88 62 97 75 163 10
46 20 64 51 92 21 19 48 39 59 45 30 17 54 68 46 100 -4 14 -13 67 -19 118
l-12 92 55 20 c84 30 142 41 162 30 36 -19 87 -10 122 21 19 17 39 30 44 30 5
0 14 5 21 12 6 6 18 13 25 14 20 3 108 65 114 80 7 19 -15 44 -39 44 -10 0
-38 10 -61 21 -23 12 -43 21 -45 20 -2 -1 -16 9 -32 22 -35 30 -110 43 -142
25 -13 -7 -26 -11 -30 -10 -11 3 -114 -124 -144 -178 -20 -36 -69 -83 -89 -86
-12 -2 62 138 89 169 9 9 16 23 16 31 0 8 6 17 13 20 6 3 -4 3 -23 0 -31 -5
-36 -3 -36 15 0 11 2 18 5 16 2 -3 13 13 23 35 14 27 27 40 40 40 16 0 19 -5
16 -23 -4 -23 -3 -23 36 -16 23 5 61 8 86 9 25 0 51 4 59 9 10 6 28 3 55 -12
23 -11 47 -22 55 -23 8 -2 17 -6 20 -11 16 -22 111 -52 111 -35 0 12 -44 52
-57 52 -6 0 -16 7 -23 15 -10 12 -10 15 0 15 9 0 9 6 -2 23 -20 30 -29 106
-18 148 5 19 11 50 14 71 3 20 14 51 25 70 10 18 22 49 26 68 4 19 16 47 26
62 11 14 19 28 19 31 0 3 27 33 61 66 49 49 73 66 123 81 33 11 68 24 77 30 9
5 26 6 38 3 12 -3 41 0 65 6 69 17 99 6 151 -56 48 -59 55 -86 28 -115 -15
-17 -15 -19 2 -38 10 -11 14 -20 10 -20 -20 0 30 -39 54 -42 14 -2 25 -9 23
-16 -1 -9 2 -10 16 -1 14 9 26 7 56 -9 l38 -21 -41 -25 c-23 -15 -41 -28 -41
-31 0 -6 38 14 61 33 13 10 18 10 29 -3 8 -9 21 -13 36 -9 17 4 33 -2 56 -21
36 -30 37 -33 16 -47 -10 -7 -8 -8 6 -6 10 2 21 -3 23 -9 3 -8 -4 -13 -15 -13
-11 0 -43 -16 -72 -36 -28 -19 -57 -33 -63 -31 -7 2 9 19 35 37 26 19 46 36
43 38 -3 3 -13 -2 -23 -11 -10 -9 -39 -26 -64 -37 -26 -11 -56 -32 -67 -46
-25 -31 -38 -14 -15 21 9 14 14 28 11 32 -4 3 -12 -6 -18 -21 -7 -14 -17 -26
-24 -26 -21 0 -80 -71 -81 -98 -1 -15 -4 -34 -7 -42 -2 -8 -8 -30 -12 -48 -8
-36 -22 -32 -26 8 -4 39 39 170 56 170 8 0 15 5 15 11 0 5 -5 7 -10 4 -17 -10
38 87 57 101 10 7 13 14 7 14 -13 0 -44 -33 -44 -47 0 -6 -7 -14 -15 -17 -9
-3 -23 -23 -31 -43 -9 -21 -25 -47 -35 -59 -13 -13 -21 -41 -24 -79 -3 -32
-10 -75 -16 -94 -7 -20 -13 -42 -15 -49 -5 -17 -33 -27 -45 -15 -5 5 -11 34
-13 64 -6 72 -16 130 -27 150 -4 9 -5 20 -1 24 4 3 8 16 9 28 8 96 66 206 128
243 26 16 27 19 11 22 -11 2 -26 -4 -34 -14 -7 -11 -17 -18 -22 -17 -16 4
-116 -132 -131 -177 -21 -66 -16 -175 10 -234 16 -37 19 -52 10 -60 -8 -8 -15
-5 -26 12 -9 12 -23 22 -33 22 -20 0 -43 24 -33 34 13 13 -19 24 -56 19 -31
-4 -42 0 -74 29 -20 19 -35 37 -32 40 3 3 -6 21 -19 41 -22 32 -24 44 -21 129
3 110 4 112 33 160 47 75 191 178 250 178 16 0 37 9 46 19 11 12 25 17 34 14
29 -11 32 -27 9 -40 -21 -11 -20 -12 16 -13 29 0 37 4 37 18 0 29 -30 49 -85
56 -44 6 -74 3 -172 -18 -30 -6 -83 -35 -83 -45 0 -5 -16 -16 -35 -25 -41 -20
-51 -37 -54 -90 -1 -21 -6 -46 -10 -55 -5 -9 -7 -50 -6 -91 1 -49 -3 -85 -12
-104 -8 -16 -13 -39 -10 -53 3 -15 0 -22 -7 -20 -6 2 -12 10 -12 18 -1 8 -2
20 -3 27 -2 22 -31 13 -32 -10 -3 -53 3 -84 18 -93 8 -5 42 -27 75 -49 33 -21
63 -46 65 -56 4 -15 9 -17 30 -9 31 11 66 12 59 0 -3 -5 14 -14 38 -21 27 -7
66 -31 99 -61 31 -27 59 -49 63 -49 4 0 15 -7 24 -15 10 -9 27 -17 39 -20 12
-2 33 -13 48 -24 14 -12 35 -21 46 -21 11 0 31 -9 43 -21 44 -41 316 -40 390
2 32 17 32 17 55 -7 12 -13 33 -24 45 -24 24 0 110 67 181 141 50 53 66 118
38 149 -10 11 -22 17 -26 14 -5 -3 -9 1 -9 9 0 8 -18 30 -41 48 -22 19 -58 52
-80 74 -22 22 -44 39 -49 37 -6 -1 -10 9 -10 22 0 13 -12 39 -27 59 -16 20
-36 48 -46 62 -10 14 -23 25 -29 23 -6 -2 -23 9 -39 24 -15 15 -36 28 -47 28
-11 0 -31 10 -46 21 -15 12 -30 19 -33 15 -3 -3 -15 6 -25 20 -13 16 -26 23
-37 19 -11 -3 -25 3 -36 15 -10 11 -26 20 -35 20 -30 0 -53 36 -52 82 0 26
-10 65 -26 98 -27 56 -90 130 -112 130 -6 0 -26 10 -43 22 -16 12 -49 31 -71
42 -23 12 -46 31 -52 43 -6 13 -18 31 -27 41 -10 10 -17 23 -17 29 0 14 -96
93 -113 93 -8 0 -20 6 -26 14 -7 8 -25 18 -41 21 -16 4 -40 15 -54 26 -22 18
-32 18 -128 9 -56 -6 -113 -12 -125 -15 -20 -5 -22 -3 -14 18 5 13 5 30 0 39
-12 21 -100 84 -147 104 -25 11 -43 29 -54 53 -30 63 -72 101 -112 101 -27 0
-34 4 -34 18 3 43 -12 69 -43 76 -34 7 -63 6 -94 -1z m205 -253 c88 -11 113
-19 64 -21 -58 -2 -86 -8 -109 -23 -12 -8 -32 -12 -43 -9 -17 4 -95 -14 -138
-33 -6 -2 -10 4 -9 15 3 44 73 95 120 87 17 -3 68 -10 115 -16z m210 -82 c51
-35 46 -50 -20 -52 -30 -1 -69 -7 -85 -13 -19 -6 -39 -7 -55 -1 l-24 9 23 12
c13 7 23 17 23 22 -3 22 -50 14 -107 -16 -36 -19 -54 -25 -46 -15 11 13 11 20
3 28 -9 9 -8 16 2 27 11 12 41 17 133 19 110 3 120 2 153 -20z m393 -111 c18
-8 38 -21 45 -30 16 -18 8 -20 -148 -37 -58 -7 -129 -16 -158 -21 -65 -10
-111 6 -154 53 -15 17 -28 33 -28 35 0 1 48 2 106 2 58 -1 108 2 111 5 12 12
194 6 226 -7z m7 -91 c0 -3 -4 -8 -10 -11 -5 -3 -10 -1 -10 4 0 6 5 11 10 11
6 0 10 -2 10 -4z m-250 -120 c0 -2 -8 -10 -17 -17 -16 -13 -17 -12 -4 4 13 16
21 21 21 13z m180 -60 c0 -8 -18 -29 -40 -46 l-41 -32 23 38 c30 52 58 71 58
40z m-937 -158 c-10 -11 -19 -15 -21 -8 -5 15 18 41 30 34 5 -3 1 -15 -9 -26z
m817 -88 c0 -5 -10 -15 -22 -21 -23 -12 -23 -12 -4 10 21 23 26 26 26 11z
m-36 -132 c-4 -7 -31 -45 -61 -85 -50 -68 -65 -103 -43 -103 5 0 15 9 22 20 7
11 20 20 28 20 12 0 14 -11 12 -50 -2 -28 0 -56 6 -63 5 -7 15 -39 22 -72 6
-33 19 -73 27 -88 17 -33 12 -45 -10 -22 -9 8 -20 15 -25 15 -23 0 -37 56 -37
151 0 74 -3 95 -12 87 -13 -11 -31 -89 -35 -155 l-3 -43 -40 19 c-22 11 -48
22 -57 25 -16 5 -15 10 11 48 16 24 32 54 35 68 4 14 11 34 16 45 19 45 38 91
43 107 4 9 24 28 46 42 21 14 42 30 46 36 9 14 18 13 9 -2z m-1305 -192 c-3
-3 -11 5 -18 17 -13 21 -12 21 5 5 10 -10 16 -20 13 -22z m-63 -31 c26 -13 27
-15 7 -15 -12 0 -25 -5 -29 -11 -5 -8 -10 -6 -16 5 -5 9 -6 21 -3 26 8 13 7
13 41 -5z m2518 -56 c19 -9 26 -19 24 -34 -1 -12 3 -29 10 -37 20 -25 13 -165
-12 -202 -46 -71 -101 -101 -203 -112 l-48 -5 0 35 c0 20 10 47 23 66 l24 32
34 -38 c39 -42 57 -37 58 17 1 34 44 77 65 65 18 -11 13 -51 -9 -71 -11 -10
-20 -22 -20 -27 0 -15 23 -8 47 14 25 24 32 85 11 106 -20 20 -73 14 -113 -14
l-38 -25 -27 26 c-14 14 -29 22 -33 18 -4 -3 -7 1 -7 9 0 9 7 21 15 28 13 11
19 9 38 -7 30 -28 63 -34 79 -16 10 13 8 19 -15 39 -15 13 -27 29 -27 37 0 25
53 64 83 61 15 -2 25 1 22 7 -10 15 -83 10 -118 -8 -58 -29 -108 -76 -135
-127 -15 -27 -26 -53 -24 -58 1 -4 -2 -8 -8 -8 -5 0 -10 6 -10 13 0 17 -34 49
-43 41 -4 -4 2 11 13 33 25 53 126 127 210 154 31 10 98 4 134 -12z m-1886
-21 c-5 -13 -8 -13 -50 -8 -20 2 -19 3 7 10 44 11 47 11 43 -2z m334 -95 c2
-10 -6 -32 -19 -49 -13 -17 -26 -44 -29 -60 -5 -26 -44 -67 -44 -47 0 14 28
87 50 131 22 45 36 53 42 25z m1749 -123 c-7 -32 -82 -115 -130 -143 l-31 -18
0 23 c0 15 17 40 45 68 43 42 57 70 34 70 -5 0 -7 5 -4 10 4 6 12 4 21 -5 20
-20 27 -19 49 5 23 26 24 26 16 -10z m-1770 -29 c-12 -16 -21 -34 -21 -39 0
-6 -12 -20 -27 -32 -20 -16 -28 -18 -35 -8 -4 8 -2 17 7 24 8 6 15 15 15 20 0
10 61 63 73 64 5 0 -1 -13 -12 -29z m1046 -30 c-2 -13 -5 -11 -15 6 -7 12 -9
29 -5 39 5 15 8 14 15 -6 5 -13 7 -31 5 -39z m129 -108 c-11 -11 -46 20 -46
40 1 21 2 21 26 -7 14 -15 23 -30 20 -33z m111 28 c10 -16 9 -20 -5 -24 -9 -3
-24 -8 -34 -12 -25 -10 -28 27 -3 42 28 15 29 15 42 -6z m-1472 -231 c3 -5 1
-10 -4 -10 -6 0 -11 5 -11 10 0 6 2 10 4 10 3 0 8 -4 11 -10z m-1355 -181
c-14 -25 -18 -24 -17 4 0 12 -3 31 -7 42 -7 17 -5 17 13 -3 16 -19 18 -28 11
-43z m1057 25 c-10 -58 -23 -68 -63 -45 -34 21 -48 9 -22 -17 18 -18 -7 -16
-37 4 -31 20 -32 34 -3 34 11 0 35 11 52 24 18 13 40 26 51 29 11 2 22 5 24 6
2 0 1 -15 -2 -35z m-747 -99 c13 -14 21 -25 18 -25 -2 0 -15 11 -28 25 -13 14
-21 25 -18 25 2 0 15 -11 28 -25z m640 -325 c0 -5 -5 -10 -11 -10 -5 0 -7 5
-4 10 3 6 8 10 11 10 2 0 4 -4 4 -10z m271 -107 c4 -39 4 -65 -1 -68 -3 -1
-61 -11 -130 -20 -69 -10 -133 -22 -143 -27 -16 -8 -16 -7 -6 10 7 10 26 27
44 36 27 15 36 16 53 5 17 -11 26 -8 68 19 67 43 113 61 115 45z m13 -111 c2
-4 1 -14 -4 -22 -8 -13 -50 -17 -212 -19 -21 0 -50 -8 -65 -18 -55 -36 -153
-57 -153 -33 0 6 8 10 17 10 9 0 33 11 52 24 23 15 69 29 126 40 50 8 99 17
110 20 37 7 124 6 129 -2z m-434 -62 c0 -5 -8 -10 -19 -10 -10 0 -24 -6 -30
-14 -6 -8 -24 -16 -39 -19 -15 -3 -46 -11 -69 -17 -48 -14 -75 -8 -67 14 4 11
12 12 27 7 14 -6 36 -3 59 6 21 8 45 13 53 9 9 -3 19 3 25 14 11 21 60 28 60
10z m210 0 c-29 -18 -1 -20 63 -3 51 14 70 15 89 6 13 -7 33 -14 45 -18 23 -6
57 -50 56 -75 0 -8 4 -21 10 -28 18 -23 11 -102 -13 -134 l-21 -29 19 -59 19
-58 -59 -7 c-32 -4 -58 -10 -58 -14 0 -4 -12 -6 -28 -3 -19 2 -34 -3 -51 -22
l-23 -25 37 4 c20 2 47 13 60 25 20 19 30 21 67 15 56 -10 115 -33 121 -49 3
-6 -1 -20 -8 -29 -10 -14 -14 -15 -18 -3 -7 17 -76 30 -117 21 -20 -4 -36 -17
-45 -36 -9 -16 -21 -29 -28 -29 -7 0 -28 -15 -46 -34 -24 -25 -32 -40 -27 -53
7 -16 11 -13 38 20 30 37 55 46 75 26 8 -8 15 -5 24 12 l13 24 6 -25 c5 -19
12 -25 32 -23 35 2 110 52 101 67 -4 6 2 4 13 -4 41 -32 43 -36 23 -48 -10 -7
-19 -17 -19 -23 0 -6 -13 -21 -29 -35 -17 -14 -33 -35 -37 -47 -4 -12 -15 -28
-26 -35 -11 -8 -18 -23 -17 -35 3 -28 -9 -65 -32 -99 -11 -14 -19 -32 -19 -38
0 -14 -29 -39 -44 -40 -5 0 1 11 14 25 13 14 20 28 17 32 -4 3 1 16 12 27 10
12 21 35 25 51 3 17 8 35 9 42 2 7 11 21 22 33 10 11 14 20 10 20 -5 0 -4 5 3
12 23 23 12 30 -38 26 -39 -2 -50 0 -50 12 -1 10 -10 4 -28 -15 -15 -17 -44
-43 -64 -58 -21 -16 -38 -33 -38 -38 0 -6 -10 -19 -22 -29 -21 -17 -23 -17
-40 5 -22 29 -22 34 2 65 28 36 25 53 -20 89 -22 17 -40 39 -40 47 0 15 25 41
79 82 27 21 29 25 19 50 -7 15 -22 39 -35 53 -22 24 -23 28 -11 74 13 47 12
47 -17 71 -27 22 -28 24 -15 50 14 25 13 28 -17 53 l-31 26 25 19 c19 14 45
19 113 20 94 3 130 17 109 42 -8 9 -40 12 -119 11 -59 -1 -106 2 -103 6 5 9
73 44 88 46 6 0 3 -3 -5 -9z m-1640 -125 c-7 -9 -10 -26 -6 -42 5 -21 4 -24
-4 -13 -5 8 -10 23 -10 33 0 22 24 61 28 47 2 -6 -2 -17 -8 -25z m143 -146 c4
-13 0 -22 -11 -26 -9 -3 -30 -18 -47 -32 -16 -14 -24 -19 -17 -11 6 8 12 26
12 40 0 16 8 29 23 36 32 16 34 16 40 -7z m1892 -209 c3 -5 1 -10 -4 -10 -6 0
-11 5 -11 10 0 6 2 10 4 10 3 0 8 -4 11 -10z m-1747 -57 c4 3 14 2 21 -2 7 -5
0 -8 -19 -9 -17 0 -37 -5 -44 -11 -6 -5 -22 -9 -33 -8 -18 1 -20 4 -10 15 17
21 50 31 64 20 7 -5 16 -7 21 -5z m1490 -201 c10 -7 10 -16 1 -43 -7 -19 -16
-39 -21 -46 -5 -7 -6 -18 -2 -25 4 -7 4 -10 -1 -6 -4 4 -14 3 -22 -4 -12 -10
-13 -7 -8 15 5 17 3 27 -4 27 -6 0 -11 -6 -12 -12 0 -7 -2 -24 -4 -38 -1 -14
2 -30 7 -37 5 -7 7 -17 3 -23 -3 -5 -1 -10 4 -10 6 0 11 -10 12 -22 0 -19 2
-20 7 -6 5 11 12 14 20 9 10 -6 10 -10 -3 -21 -8 -7 -15 -19 -15 -26 0 -37
-43 4 -54 51 -15 62 -18 95 -11 112 4 10 8 25 9 33 1 17 56 77 71 79 6 0 16
-3 23 -7z"/>
<path d="M2386 2351 c-4 -7 -5 -15 -2 -18 9 -9 19 4 14 18 -4 11 -6 11 -12 0z"/>
<path d="M2465 1532 c-9 -7 -35 -16 -112 -38 -7 -2 -13 -8 -13 -14 0 -20 34
-23 91 -8 39 10 61 12 68 5 16 -16 41 0 39 26 -1 13 -7 24 -13 24 -5 0 -19 3
-30 6 -12 4 -25 3 -30 -1z"/>
<path d="M2655 1030 c-3 -5 -2 -10 4 -10 5 0 13 5 16 10 3 6 2 10 -4 10 -5 0
-13 -4 -16 -10z"/>
<path d="M2614 1015 c-10 -8 -14 -14 -9 -15 15 0 40 18 34 24 -3 3 -14 -1 -25
-9z"/>
<path d="M2100 4460 c0 -6 6 -10 14 -10 7 0 29 -3 47 -6 30 -5 32 -4 15 7 -25
16 -76 22 -76 9z"/>
<path d="M2021 4433 c-13 -3 -37 -13 -55 -24 -17 -10 -38 -19 -46 -19 -21 0
-80 -65 -105 -115 -11 -22 -26 -44 -32 -50 -17 -14 -5 -55 17 -55 47 0 99 47
70 65 -6 4 -7 12 -3 18 4 7 8 17 8 22 5 57 76 118 185 158 13 5 13 5 0 5 -8 0
-26 -3 -39 -5z"/>
<path d="M2221 4411 c23 -31 36 -35 26 -7 -3 8 -16 20 -27 26 -22 12 -22 11 1
-19z"/>
<path d="M2156 4331 c-4 -5 -26 -19 -49 -30 -24 -12 -54 -32 -66 -45 -22 -24
-23 -24 -3 -35 11 -6 38 -13 61 -17 22 -4 41 -10 41 -15 0 -5 5 -9 12 -9 6 0
4 7 -5 18 -28 31 -20 58 31 101 l47 41 -32 0 c-17 0 -34 -4 -37 -9z"/>
<path d="M2334 4267 c-38 -15 -134 -87 -134 -102 0 -18 50 -57 65 -51 8 3 15
15 15 27 0 26 60 84 108 105 61 27 12 46 -54 21z"/>
<path d="M1925 4230 c-29 -7 -29 -8 10 -9 22 0 47 4 55 9 12 8 10 9 -10 9 -14
-1 -38 -5 -55 -9z"/>
<path d="M2000 4171 c8 -6 25 -11 37 -11 31 0 36 -15 10 -27 -49 -24 -147 -49
-147 -39 1 14 25 46 34 46 4 0 14 7 22 15 14 13 13 15 -5 15 -12 0 -21 -5 -21
-11 0 -6 -8 -8 -19 -4 -11 3 -28 2 -38 -3 -28 -15 -65 -30 -98 -40 -30 -9 -37
-21 -50 -86 -5 -22 -10 -27 -25 -23 -28 7 -25 1 15 -34 29 -25 35 -38 35 -69
0 -22 4 -41 10 -45 5 -3 7 -12 4 -19 -6 -16 21 -40 36 -31 7 4 5 16 -6 34 -12
20 -15 39 -10 65 7 37 31 56 89 70 15 3 27 12 27 20 0 7 7 19 16 27 10 8 13
21 9 36 -4 18 -1 23 12 23 10 0 31 7 47 15 15 8 52 15 81 15 41 0 55 -4 66
-20 8 -12 38 -26 72 -35 63 -16 86 -12 66 11 -11 14 -95 56 -139 69 -14 4 -29
14 -35 21 -5 8 -32 17 -60 20 -37 4 -46 3 -35 -5z"/>
<path d="M2121 3992 c-5 -9 -12 -35 -16 -57 -5 -35 -4 -37 6 -20 7 11 14 29
15 40 1 11 7 19 13 18 6 -2 11 6 11 17 0 25 -16 26 -29 2z"/>
<path d="M3098 3913 c7 -3 16 -2 19 1 4 3 -2 6 -13 5 -11 0 -14 -3 -6 -6z"/>
<path d="M1846 3795 c6 -44 10 -52 21 -42 3 4 1 17 -5 30 -6 12 -13 29 -16 37
-3 8 -3 -3 0 -25z"/>
<path d="M2685 3800 c-3 -6 1 -7 9 -4 18 7 21 14 7 14 -6 0 -13 -4 -16 -10z"/>
<path d="M1820 3713 c-14 -2 -36 -13 -50 -23 -23 -18 -24 -20 -4 -20 11 0 25
5 32 12 9 9 12 8 12 -6 0 -16 3 -15 29 6 17 13 30 26 30 31 1 7 -4 7 -49 0z"/>
<path d="M2105 3690 c-10 -16 2 -27 40 -34 47 -9 49 -9 53 3 6 17 -83 47 -93
31z"/>
<path d="M1664 3678 c-4 -7 -3 -8 4 -4 7 4 12 2 12 -3 0 -6 5 -11 10 -11 15 0
12 17 -5 23 -8 4 -17 1 -21 -5z"/>
<path d="M3151 3667 c-60 -53 -83 -82 -68 -85 22 -4 76 36 93 71 11 21 12 27
2 27 -7 -1 -19 -6 -27 -13z"/>
<path d="M1643 3628 c-29 -8 -31 -12 -23 -48 0 -3 7 3 14 13 14 17 16 16 50
-20 34 -37 35 -37 35 -13 0 14 -10 37 -22 51 -19 23 -26 25 -54 17z"/>
<path d="M2929 3573 c0 -5 -2 -17 -4 -28 -6 -29 5 -61 15 -45 6 9 12 9 30 0
23 -13 36 -8 25 9 -3 6 -18 11 -32 11 -23 0 -25 3 -19 30 3 17 1 30 -4 30 -6
0 -10 -3 -11 -7z"/>
<path d="M2422 3521 c-41 -40 -61 -52 -106 -61 -59 -12 -79 -26 -49 -36 54
-17 63 -27 63 -66 0 -35 12 -50 24 -30 3 5 8 35 11 68 7 64 24 91 51 80 26
-10 11 -91 -26 -143 -17 -23 -30 -46 -30 -51 0 -5 -15 -13 -33 -16 -39 -7 -64
-40 -46 -62 10 -13 15 -12 35 7 12 11 27 18 32 15 5 -3 15 1 22 9 7 8 10 15 7
15 -4 0 5 17 19 37 13 20 23 41 21 47 -2 6 8 34 23 61 24 44 52 175 37 175 -2
0 -27 -22 -55 -49z"/>
<path d="M1940 3550 c-13 -8 -13 -10 2 -10 9 0 20 5 23 10 8 13 -5 13 -25 0z"/>
<path d="M1980 3550 c0 -5 5 -10 11 -10 5 0 7 5 4 10 -3 6 -8 10 -11 10 -2 0
-4 -4 -4 -10z"/>
<path d="M2090 3550 c8 -5 20 -10 25 -10 6 0 3 5 -5 10 -8 5 -19 10 -25 10 -5
0 -3 -5 5 -10z"/>
<path d="M2010 3546 c0 -2 9 -6 20 -9 11 -3 18 -1 14 4 -5 9 -34 13 -34 5z"/>
<path d="M1950 3500 c11 -16 26 -44 32 -62 18 -55 72 -138 87 -135 24 4 23 24
-1 30 -21 6 -23 12 -23 62 0 52 1 55 25 55 32 -1 70 -35 93 -83 23 -47 31 -47
23 -1 -4 21 -3 41 4 49 14 16 -61 56 -142 75 -31 7 -60 20 -63 28 -4 11 -8 12
-20 2 -10 -9 -15 -9 -15 -1 0 6 -5 11 -11 11 -6 0 -1 -13 11 -30z"/>
<path d="M3910 3513 c-1 -12 -20 -27 -53 -42 -50 -24 -147 -109 -147 -130 0
-5 27 17 59 50 33 32 67 59 75 59 9 0 16 4 16 9 0 14 64 32 86 25 16 -6 15 -3
-5 19 -29 32 -31 32 -31 10z"/>
<path d="M2110 3510 c8 -5 29 -9 45 -9 29 1 29 1 5 9 -14 4 -34 8 -45 9 -16 1
-17 -1 -5 -9z"/>
<path d="M3030 3506 c0 -8 11 -17 25 -20 14 -4 30 -17 35 -29 l9 -22 0 22 c1
13 -7 24 -18 28 -11 3 -22 12 -25 20 -7 19 -26 19 -26 1z"/>
<path d="M3707 3453 c-48 -41 -99 -102 -62 -73 11 8 32 26 46 40 14 14 38 35
53 48 15 12 23 22 18 22 -6 0 -30 -17 -55 -37z"/>
<path d="M3127 3460 c7 -25 23 -37 23 -17 0 8 -6 20 -14 26 -12 10 -13 8 -9
-9z"/>
<path d="M3870 3410 c-8 -5 -12 -12 -9 -15 4 -3 12 1 19 10 14 17 11 19 -10 5z"/>
<path d="M2863 3333 c-20 -48 -20 -81 0 -100 14 -14 16 -12 26 23 26 102 8
157 -26 77z"/>
<path d="M3792 3335 c-17 -20 -47 -62 -66 -93 -34 -57 -44 -107 -37 -197 l3
-30 9 30 c5 17 12 59 15 95 7 70 27 130 43 130 6 0 11 6 11 13 0 6 16 29 35
50 18 20 31 37 26 37 -4 0 -21 -16 -39 -35z"/>
<path d="M2998 3337 c-16 -13 -28 -28 -28 -34 0 -6 -7 -13 -15 -17 -11 -4 -13
-11 -6 -30 6 -13 7 -27 4 -30 -4 -3 -3 -6 1 -6 13 0 36 28 36 45 0 9 13 29 28
44 15 16 26 33 24 40 -5 16 -13 13 -44 -12z"/>
<path d="M3609 3343 c-31 -36 -63 -86 -49 -78 9 6 8 0 -3 -16 -24 -33 -22
-133 3 -179 l19 -35 1 30 c0 17 -5 36 -12 43 -8 8 -8 30 2 87 7 42 17 78 21
81 5 3 9 12 9 21 0 9 7 21 16 28 9 6 15 17 13 24 -3 9 -9 7 -20 -6z"/>
<path d="M3996 3309 c-11 -11 -15 -19 -9 -19 12 0 38 28 32 34 -2 2 -13 -5
-23 -15z"/>
<path d="M3662 3278 c-18 -24 -32 -53 -32 -69 0 -16 -6 -32 -14 -36 -23 -13
-26 -70 -7 -116 l18 -42 5 95 c3 80 8 101 29 135 24 37 42 75 36 75 -2 0 -17
-19 -35 -42z"/>
<path d="M2070 3286 c0 -2 8 -10 18 -17 15 -13 16 -12 3 4 -13 16 -21 21 -21
13z"/>
<path d="M3934 3245 c-59 -71 -75 -95 -70 -104 3 -5 -1 -15 -10 -22 -9 -7 -14
-25 -13 -43 1 -17 -2 -48 -6 -69 -7 -35 0 -74 24 -140 3 -10 5 14 3 55 -3 51
1 86 13 118 9 25 23 69 30 97 7 29 24 73 38 98 14 25 24 45 22 45 -1 0 -16
-16 -31 -35z"/>
<path d="M2128 3240 c13 -10 23 -22 22 -27 0 -4 19 -8 43 -8 34 0 44 4 52 23
5 12 17 22 25 23 11 0 11 2 2 6 -15 6 -44 -16 -36 -28 7 -12 -25 -6 -52 9 -12
6 -24 8 -28 5 -3 -3 -6 -2 -6 3 0 5 -10 10 -22 11 l-23 2 23 -19z"/>
<path d="M4136 3205 c-14 -13 -26 -27 -26 -31 0 -4 14 5 30 21 17 16 30 30 30
32 0 7 -9 2 -34 -22z"/>
<path d="M1670 3134 c-41 -14 -97 -41 -111 -54 -10 -8 -29 -26 -43 -39 -26
-23 -36 -71 -15 -71 5 0 7 4 4 10 -7 11 74 90 93 90 6 0 12 4 12 9 0 22 75 34
91 14 6 -7 24 -13 39 -13 41 0 130 22 130 32 0 10 -70 8 -85 -2 -24 -15 -64
-9 -70 10 -6 20 -16 23 -45 14z"/>
<path d="M1731 3130 c-9 -5 -4 -9 13 -12 14 -3 26 -2 26 2 0 12 -26 19 -39 10z"/>
<path d="M2791 3073 c-11 -21 4 -57 20 -48 12 8 12 52 0 60 -6 3 -14 -3 -20
-12z"/>
<path d="M2724 3062 c2 -4 1 -26 -4 -49 -5 -30 -4 -46 5 -53 17 -14 25 -2 25
34 0 41 -10 76 -22 76 -5 0 -7 -3 -4 -8z"/>
<path d="M1710 3050 c-56 -12 -128 -47 -139 -68 -12 -22 3 -82 21 -82 5 0 7
-4 4 -9 -3 -4 6 -6 19 -3 14 2 25 8 25 12 0 5 14 21 31 37 17 15 41 38 52 51
11 12 27 22 34 22 16 0 14 42 -2 46 -5 1 -26 -2 -45 -6z m-39 -70 c-47 -44
-59 -48 -67 -25 -10 24 46 63 91 64 16 0 11 -8 -24 -39z"/>
<path d="M1890 3040 c0 -5 9 -10 20 -10 11 0 20 5 20 10 0 6 -9 10 -20 10 -11
0 -20 -4 -20 -10z"/>
<path d="M1846 3014 c-9 -8 -16 -18 -16 -22 0 -3 5 -1 12 6 7 7 23 12 36 12
13 0 20 4 17 10 -9 15 -31 12 -49 -6z"/>
<path d="M1767 2979 c-20 -17 -37 -37 -37 -44 0 -8 -8 -18 -17 -24 -10 -5 -15
-13 -11 -16 4 -4 18 4 31 19 13 14 27 23 30 20 3 -3 8 4 12 15 3 12 14 21 24
21 10 0 17 8 18 20 2 27 -6 25 -50 -11z"/>
<path d="M2666 3001 c-4 -5 -2 -12 3 -15 5 -4 12 -2 15 3 4 5 2 12 -3 15 -5 4
-12 2 -15 -3z"/>
<path d="M2565 2950 c0 -27 3 -50 8 -50 4 0 7 23 7 50 0 28 -3 50 -7 50 -5 0
-8 -22 -8 -50z"/>
<path d="M2484 2982 c-12 -8 -14 -17 -15 -87 -1 -72 2 -88 19 -107 21 -25 34
-12 26 28 -5 27 -3 34 10 34 11 0 16 9 16 33 0 17 3 50 7 71 5 30 3 37 -6 32
-7 -5 -16 -18 -21 -30 l-9 -21 0 22 c-1 25 -12 35 -27 25z m25 -116 c-9 -8
-10 -7 -5 7 3 10 7 24 7 30 1 7 3 4 6 -7 3 -10 -1 -23 -8 -30z"/>
<path d="M2408 2938 c-1 -44 -1 -52 6 -103 9 -68 19 -93 37 -98 28 -8 32 8 14
62 -17 53 -22 105 -11 138 5 16 2 25 -13 32 -29 16 -31 15 -33 -31z"/>
<path d="M3440 2888 c0 -4 7 -8 15 -8 8 0 15 4 15 8 0 5 -7 9 -15 9 -8 0 -15
-4 -15 -9z"/>
<path d="M3553 2883 c9 -2 23 -2 30 0 6 3 -1 5 -18 5 -16 0 -22 -2 -12 -5z"/>
<path d="M2197 2753 c-10 -9 -9 -43 1 -43 4 0 9 11 10 25 2 26 0 29 -11 18z"/>
<path d="M2250 2683 c0 -18 2 -33 4 -33 9 0 13 39 5 51 -6 10 -9 4 -9 -18z"/>
<path d="M1997 2693 c-10 -9 -8 -52 2 -72 6 -10 7 -28 4 -41 -6 -22 -7 -23
-14 -4 -6 16 -8 14 -8 -9 -1 -16 3 -26 8 -22 5 3 13 1 16 -5 16 -26 32 12 31
72 -1 56 -3 63 -20 60 -14 -3 -17 1 -13 12 7 17 4 20 -6 9z"/>
<path d="M1064 2666 c-3 -8 7 -33 22 -56 l27 -41 -20 -21 c-21 -21 -42 -23
-104 -12 -32 5 -37 10 -45 47 -5 22 -17 45 -26 51 -62 38 -87 -126 -32 -211
17 -28 76 -58 126 -66 20 -3 52 -13 71 -22 40 -19 90 -88 75 -103 -6 -6 -9
-15 -6 -22 2 -7 13 -4 31 10 24 19 30 20 44 8 12 -9 14 -9 9 -1 -5 9 1 11 23
7 28 -6 30 -4 42 35 l12 41 -51 54 c-49 52 -52 58 -52 108 0 30 5 59 10 64 14
14 21 54 9 55 -5 1 -15 2 -21 3 -7 1 -12 7 -11 14 2 6 -12 19 -29 28 -18 9
-38 23 -46 30 -18 18 -51 18 -58 0z m-154 -131 c0 -35 6 -52 31 -80 17 -19 37
-35 44 -35 7 0 26 -7 41 -16 l29 -16 -37 5 c-56 8 -89 28 -109 67 -20 37 -27
136 -9 125 6 -3 10 -26 10 -50z"/>
<path d="M2743 2669 c14 -8 22 -8 30 0 8 8 3 11 -18 11 -26 -1 -28 -2 -12 -11z"/>
<path d="M2202 2640 c0 -14 2 -19 5 -12 2 6 2 18 0 25 -3 6 -5 1 -5 -13z"/>
<path d="M2134 2603 c3 -16 16 -22 16 -8 0 3 0 10 0 15 0 6 -4 10 -9 10 -5 0
-8 -8 -7 -17z"/>
<path d="M1727 2494 c-18 -19 -5 -52 32 -80 35 -26 41 -35 47 -82 3 -30 4 -74
0 -99 -6 -44 5 -83 24 -83 6 0 28 -18 51 -41 31 -31 45 -38 61 -33 16 5 20 3
16 -8 -8 -19 23 -17 90 6 29 10 52 24 52 31 0 12 -7 11 -37 -2 -40 -16 -113
-19 -137 -6 -8 4 -30 22 -49 40 l-35 31 -1 98 c-1 53 -4 100 -6 105 -3 4 -2
14 1 23 5 13 9 14 20 5 8 -7 18 -8 22 -4 4 4 1 10 -6 12 -7 3 -17 16 -22 29
-5 12 -20 30 -33 38 -28 19 -79 30 -90 20z"/>
<path d="M2700 2381 c-5 -11 -10 -38 -10 -60 0 -22 -5 -41 -12 -44 -7 -2 -10
-7 -7 -11 10 -11 39 5 50 27 10 17 9 19 -5 14 -12 -5 -16 -1 -16 15 0 16 3 18
14 9 11 -9 15 -6 18 14 3 14 1 28 -4 31 -4 3 -6 10 -3 15 4 5 2 9 -4 9 -6 0
-15 -9 -21 -19z"/>
<path d="M2636 2238 c-16 -49 -16 -67 -1 -62 9 4 15 19 15 40 0 34 -7 45 -14
22z"/>
<path d="M975 2164 c-17 -13 -26 -24 -21 -24 5 0 -4 -10 -20 -22 -16 -13 -32
-22 -35 -21 -4 1 -14 -6 -24 -17 -28 -30 3 -69 49 -61 60 11 92 -3 122 -55 12
-21 61 -31 76 -16 7 7 5 18 -6 33 -21 30 -20 73 1 94 9 10 18 29 19 44 2 14 6
37 9 51 4 19 3 21 -5 10 -5 -8 -10 -25 -10 -36 0 -12 -7 -27 -15 -34 -8 -7
-15 -19 -15 -26 0 -22 -34 -16 -58 9 -11 12 -21 25 -21 30 -1 4 -2 10 -2 15
-1 4 -1 14 0 24 3 27 -12 28 -44 2z m52 -128 c-5 -13 -10 -13 -32 -2 -14 8
-32 22 -40 32 -11 16 -10 20 4 31 13 10 21 7 45 -17 18 -17 27 -34 23 -44z"/>
<path d="M2610 2145 c-10 -12 -10 -18 -2 -26 7 -5 10 -6 7 -3 -2 4 0 15 6 25
12 23 6 25 -11 4z"/>
<path d="M2530 2110 c0 -5 5 -10 11 -10 5 0 7 5 4 10 -3 6 -8 10 -11 10 -2 0
-4 -4 -4 -10z"/>
<path d="M2125 2010 c3 -5 11 -10 16 -10 6 0 7 5 4 10 -3 6 -11 10 -16 10 -6
0 -7 -4 -4 -10z"/>
<path d="M1757 1983 c3 -8 -6 -26 -21 -42 -14 -15 -24 -30 -21 -32 2 -3 -14
-4 -37 -2 -22 2 -46 -1 -52 -6 -19 -15 -128 1 -154 22 -15 12 -32 -6 -32 -34
0 -25 12 -30 30 -14 15 14 19 13 35 -5 15 -16 31 -20 84 -20 106 0 165 26 183
82 7 20 57 -1 96 -40 33 -34 55 -49 87 -58 6 -1 25 -8 42 -15 24 -10 36 -10
44 -2 14 14 3 33 -19 33 -19 1 -102 47 -188 105 -65 43 -86 51 -77 28z"/>
<path d="M1160 1970 c-17 -15 -19 -20 -8 -20 17 0 44 27 36 35 -3 3 -15 -4
-28 -15z"/>
<path d="M1480 1852 c0 -17 52 -82 61 -77 5 4 -4 24 -22 46 -31 39 -39 46 -39
31z"/>
<path d="M1426 1841 c-4 -5 -2 -12 3 -15 5 -4 12 -2 15 3 4 5 2 12 -3 15 -5 4
-12 2 -15 -3z"/>
<path d="M1771 1786 c-9 -10 -9 -16 -1 -21 13 -8 23 0 26 20 3 19 -10 19 -25
1z"/>
<path d="M1844 1755 c-37 -16 -58 -40 -49 -55 4 -7 18 -4 41 10 19 12 34 18
34 14 0 -4 9 1 20 11 36 32 9 44 -46 20z"/>
<path d="M1360 1740 c0 -5 5 -10 10 -10 6 0 10 5 10 10 0 6 -4 10 -10 10 -5 0
-10 -4 -10 -10z"/>
<path d="M1396 1735 c-10 -28 -3 -36 115 -123 9 -7 39 -15 66 -16 26 -2 38 -2
26 1 -12 2 -27 11 -33 19 -7 8 -17 14 -23 14 -10 0 -125 94 -138 113 -3 5 -9
1 -13 -8z"/>
<path d="M1755 1740 c3 -5 8 -10 11 -10 2 0 4 5 4 10 0 6 -5 10 -11 10 -5 0
-7 -4 -4 -10z"/>
<path d="M1328 1685 c-25 -34 -22 -43 3 -11 12 15 20 29 18 31 -2 1 -12 -7
-21 -20z"/>
<path d="M1696 1625 c4 -8 10 -15 15 -15 4 0 6 7 3 15 -4 8 -10 15 -15 15 -4
0 -6 -7 -3 -15z"/>
<path d="M1041 1574 c0 -11 3 -14 6 -6 3 7 2 16 -1 19 -3 4 -6 -2 -5 -13z"/>
<path d="M1240 1538 c-12 -22 -12 -22 6 -6 10 10 15 20 12 24 -4 3 -12 -5 -18
-18z"/>
<path d="M1096 1521 c-9 -14 16 -66 32 -66 6 0 11 5 10 10 -2 6 -7 9 -12 7 -5
-2 -4 4 3 12 7 8 20 12 29 9 9 -3 14 -3 11 1 -4 4 -17 9 -29 11 -13 3 -27 10
-31 16 -5 8 -8 8 -13 0z"/>
<path d="M1193 1511 c-10 -15 -7 -17 19 -13 16 2 28 5 26 6 -2 1 -10 7 -18 13
-13 10 -18 8 -27 -6z"/>
<path d="M1156 1415 c17 -26 38 -32 49 -15 3 5 -8 16 -24 25 -41 21 -44 19
-25 -10z"/>
<path d="M3178 1147 c-51 -18 -216 -205 -202 -228 10 -17 22 -8 62 49 22 31
53 69 69 84 28 27 119 62 134 52 28 -17 -91 -154 -135 -154 -2 0 5 18 15 40
13 27 25 40 37 38 23 -4 22 26 0 30 -10 2 -31 -6 -47 -17 -23 -17 -28 -27 -26
-58 2 -37 0 -39 -57 -66 -32 -15 -58 -32 -58 -38 0 -19 30 -21 57 -2 15 11 50
28 78 38 59 22 134 89 166 149 20 38 21 48 11 70 -10 22 -17 26 -47 24 -20 -2
-45 -6 -57 -11z"/>
<path d="M1045 900 c-3 -5 -2 -10 4 -10 5 0 13 5 16 10 3 6 2 10 -4 10 -5 0
-13 -4 -16 -10z"/>
</g>
</svg>
